<svg xmlns="http://www.w3.org/2000/svg" viewBox="0 0 804.82 961.65"><path d="M111.82,621.07c5.54-47.86,24.36-74.64,59.81-102.11,50.72-37.2,114.08-16.16,114.08-16.16V378a260.76,260.76,0,0,1,46,2.85V541.47s-63.33-21.05-114.06,16.17c-35.43,27.46-54.28,54.26-59.8,102.11-.17,26,4.5,60,26,89.34q-8-4.29-16.27-9.75C120.23,706.13,111.59,656.3,111.82,621.07ZM593.36,147.16C558.46,107.27,545.27,67,540.5,38.69h43.89s-8.75,74.19,55,147.15l.87,1A256.14,256.14,0,0,1,593.36,147.16ZM804.8,260.25V417.67s-56-2.29-97.46-13.29c-57.88-15.38-95.08-39-95.08-39s-25.69-16.82-27.77-18V672.45c0,18.1-4.75,63.29-19.24,101-18.9,49.32-48.08,81.69-53.44,88.31,0,0-35.49,43.75-98.1,73.24-56.44,26.6-105.95,25.92-120.79,26.6,0,0-85.65,3.53-162.73-48.73a325.48,325.48,0,0,1-46.47-39l.39.29C161.2,926.5,246.83,922.9,246.83,922.9c14.82-.66,64.37,0,120.8-26.57,62.55-29.47,98.1-73.25,98.1-73.25,5.31-6.62,34.62-39,53.45-88.33,14.39-37.68,19.23-82.9,19.23-101v-325c2.08,1.2,27.76,18,27.76,18s37.21,23.67,95.11,39c41.47,11,97.46,13.29,97.46,13.29V255.67c19.17,4.49,35.49,5.71,46.08,4.58Z" fill="#ee1d52"/><path d="M758.73,255.67V379s-56-2.29-97.46-13.29c-57.88-15.39-95.09-39-95.09-39s-25.68-16.83-27.75-18v325.1c0,18.1-4.75,63.32-19.25,101-18.9,49.34-48.08,81.71-53.44,88.33,0,0-35.51,43.75-98.1,73.25-56.41,26.57-105.95,25.91-120.79,26.57,0,0-85.64,3.55-162.73-48.72l-.38-.29a301.1,301.1,0,0,1-22.94-26c-24.6-31.29-39.69-68.3-43.48-78.86V769C11.23,750.67-1.58,706.56.16,663.88c3.1-75.3,28.49-121.52,35.21-133.1a313.42,313.42,0,0,1,68.33-83.57,285.43,285.43,0,0,1,81.21-48.08A272.21,272.21,0,0,1,285.71,378V502.8S222.35,481.88,171.64,519c-35.45,27.47-54.26,54.25-59.8,102.11-.23,35.23,8.41,85,55.78,118.3q8.28,5.46,16.27,9.73A126.8,126.8,0,0,0,213.7,778c46.28,30.57,85,32.7,134.65,12.85,33.06-13.26,58-43.16,69.49-76.32,7.26-20.69,7.16-41.52,7.16-63.06V38.69H540.4c4.77,28.29,18,68.58,52.87,108.47a255.94,255.94,0,0,0,47,39.66c5.07,5.48,31,32.58,64.38,49.22A251.72,251.72,0,0,0,758.73,255.67Z"/><path d="M540.5,38.69H425.1V651.52c0,21.55,0,42.32-7.17,63.07-11.65,33.12-36.44,63-69.49,76.3-49.6,20-88.38,17.72-134.63-12.85a126.6,126.6,0,0,1-29.94-28.85c39.42,21,74.7,20.67,118.4,3.13,33-13.28,57.85-43.17,69.46-76.32,7.28-20.71,7.19-41.53,7.19-63.06V0H538.33S536.52,15.23,540.5,38.69ZM758.73,221.57v34.1a250.58,250.58,0,0,1-54.05-19.62c-33.32-16.63-59.29-43.74-64.38-49.22a180.78,180.78,0,0,0,18.37,10.56c40.55,20.23,80.44,26.26,100.11,24.21Z" fill="#69c9d0"/></svg>