<svg xmlns="http://www.w3.org/2000/svg" xmlns:xlink="http://www.w3.org/1999/xlink" viewBox="0 0 999 999"><defs><radialGradient id="a" cx="65.67" cy="22.08" r="1268.25" gradientTransform="matrix(1, 0, 0, -1, -0.02, 1000.19)" gradientUnits="userSpaceOnUse"><stop offset="0.09" stop-color="#fa8f21"/><stop offset="0.78" stop-color="#d82d7e"/></radialGradient><radialGradient id="b" cx="692.93" cy="54.15" r="1116.07" gradientTransform="matrix(1, 0, 0, -1, -0.02, 1000.19)" gradientUnits="userSpaceOnUse"><stop offset="0.64" stop-color="#8c3aaa" stop-opacity="0"/><stop offset="1" stop-color="#8c3aaa"/></radialGradient></defs><title>instagram-40</title><path d="M254.32,996.47c-59.41-2.71-91.68-12.59-113.15-21-28.44-11.08-48.72-24.26-70.07-45.58s-34.56-41.6-45.58-70c-8.37-21.47-18.26-53.74-21-113.15C1.59,682.52,1,663.25,1,500.54S1.65,318.6,4.53,254.32c2.71-59.41,12.65-91.62,21-113.15,11.08-28.44,24.29-48.72,45.58-70.1s41.6-34.56,70.07-45.58c21.47-8.37,53.74-18.25,113.15-21C318.54,1.59,337.84,1,500.49,1s181.94.65,246.22,3.53c59.41,2.71,91.62,12.65,113.15,21,28.44,11,48.72,24.26,70.07,45.58s34.5,41.63,45.58,70.07c8.37,21.47,18.25,53.74,21,113.15,2.94,64.28,3.53,83.52,3.53,246.22s-.59,182-3.53,246.23c-2.71,59.41-12.65,91.68-21,113.15-11.08,28.44-24.26,48.72-45.58,70s-41.63,34.5-70.07,45.58c-21.47,8.37-53.74,18.25-113.15,21-64.22,2.94-83.52,3.53-246.22,3.53s-181.95-.56-246.17-3.53" transform="translate(-1 -1)" fill="url(#a)"/><path d="M254.32,996.47c-59.41-2.71-91.68-12.59-113.15-21-28.44-11.08-48.72-24.26-70.07-45.58s-34.56-41.6-45.58-70c-8.37-21.47-18.26-53.74-21-113.15C1.59,682.52,1,663.25,1,500.54S1.65,318.6,4.53,254.32c2.71-59.41,12.65-91.62,21-113.15,11.08-28.44,24.29-48.72,45.58-70.1s41.6-34.56,70.07-45.58c21.47-8.37,53.74-18.25,113.15-21C318.54,1.59,337.84,1,500.49,1s181.94.65,246.22,3.53c59.41,2.71,91.62,12.65,113.15,21,28.44,11,48.72,24.26,70.07,45.58s34.5,41.63,45.58,70.07c8.37,21.47,18.25,53.74,21,113.15,2.94,64.28,3.53,83.52,3.53,246.22s-.59,182-3.53,246.23c-2.71,59.41-12.65,91.68-21,113.15-11.08,28.44-24.26,48.72-45.58,70s-41.63,34.5-70.07,45.58c-21.47,8.37-53.74,18.25-113.15,21-64.22,2.94-83.52,3.53-246.22,3.53s-181.95-.56-246.17-3.53" transform="translate(-1 -1)" fill="url(#b)"/><path d="M377.85,502.63A123.71,123.71,0,1,1,501.54,626.35,123.71,123.71,0,0,1,377.85,502.63m-66.88,0c0,105.25,85.32,190.57,190.57,190.57s190.57-85.32,190.57-190.57S606.79,312.06,501.54,312.06,311,397.37,311,502.63M655.12,304.5A44.54,44.54,0,1,0,699.68,260h0a44.56,44.56,0,0,0-44.54,44.52M351.6,804.72c-36.18-1.64-55.85-7.67-68.92-12.76C265.35,785.21,253,777.18,240,764.2s-21-25.33-27.76-42.66c-5.09-13.07-11.12-32.74-12.77-68.92-1.8-39.12-2.15-50.88-2.15-150s.38-110.82,2.15-150c1.65-36.18,7.72-55.82,12.77-68.92C219,266.4,227,254,240,241s25.33-21,42.69-27.76c13.06-5.09,32.74-11.12,68.92-12.76,39.12-1.8,50.87-2.16,149.94-2.16s110.83.38,150,2.16c36.19,1.65,55.82,7.72,68.92,12.77,17.33,6.71,29.69,14.78,42.69,27.76s21,25.36,27.76,42.69c5.1,13.06,11.12,32.73,12.77,68.92,1.8,39.15,2.16,50.87,2.16,150s-.36,110.83-2.16,150c-1.65,36.19-7.71,55.85-12.77,68.92-6.74,17.33-14.78,29.69-27.76,42.66s-25.36,21-42.69,27.76c-13.06,5.1-32.73,11.13-68.92,12.77-39.12,1.8-50.87,2.16-150,2.16s-110.83-.36-149.94-2.16m-3.07-671C309,135.54,282,141.81,258.44,151a182.33,182.33,0,0,0-65.74,42.81c-20.66,20.62-33.33,41.31-42.81,65.74-9.17,23.6-15.44,50.58-17.24,90.09s-2.24,52.22-2.24,153,.42,113.44,2.24,153,8.07,66.49,17.24,90.08c9.48,24.41,22.16,45.13,42.81,65.75s41.31,33.3,65.74,42.81c23.63,9.17,50.58,15.43,90.09,17.23s52.22,2.25,153,2.25,113.44-.42,153-2.25,66.49-8.06,90.08-17.23c24.41-9.51,45.09-22.19,65.75-42.81s33.3-41.34,42.81-65.75c9.17-23.59,15.46-50.57,17.23-90.08s2.22-52.22,2.22-153-.42-113.44-2.22-153-8.06-66.51-17.23-90.09c-9.51-24.4-22.19-45.08-42.81-65.74S769,160.46,744.66,151c-23.62-9.17-50.6-15.47-90.08-17.24s-52.22-2.24-153-2.24-113.44.41-153,2.24" transform="translate(-1 -1)" fill="#fff"/></svg>